<?xml version="1.0" encoding="UTF-8"?>
<svg xmlns="http://www.w3.org/2000/svg" xmlns:xlink="http://www.w3.org/1999/xlink" width="96pt" height="96pt" viewBox="0 0 96 96" version="1.1">
<g id="surface1">
<path style=" stroke:none;fill-rule:nonzero;fill:#546E7A;fill-opacity:1;" d="M 74.585938 84 L 69.414063 84 C 67.535156 84 66 82.464844 66 80.585938 L 66 75.75 L 78 75.75 L 78 80.585938 C 78 82.464844 76.464844 84 74.585938 84 Z "/>
<path style=" stroke:none;fill-rule:nonzero;fill:#546E7A;fill-opacity:1;" d="M 26.75 84 L 21.417969 84 C 19.535156 84 18 82.464844 18 80.585938 L 18 75.75 L 30.164063 75.75 L 30.164063 80.585938 C 30.164063 82.464844 28.632813 84 26.75 84 Z "/>
<path style=" stroke:none;fill-rule:nonzero;fill:#CFD8DC;fill-opacity:1;" d="M 79.164063 80 L 16.832031 80 C 14.167969 80 12 77.996094 12 75.332031 L 12 20.832031 C 12 18.167969 14.167969 16 16.832031 16 L 79.164063 16 C 81.832031 16 84 18.167969 84 20.832031 L 84 75.332031 C 84 77.996094 81.832031 80 79.164063 80 Z "/>
<path style=" stroke:none;fill-rule:nonzero;fill:#90A4AE;fill-opacity:1;" d="M 12 30 L 84 30 L 84 34 L 12 34 Z "/>
<path style=" stroke:none;fill-rule:nonzero;fill:#FF1744;fill-opacity:1;" d="M 76 23 C 76 24.65625 74.65625 26 73 26 C 71.34375 26 70 24.65625 70 23 C 70 21.34375 71.34375 20 73 20 C 74.65625 20 76 21.34375 76 23 Z "/>
<path style=" stroke:none;fill-rule:nonzero;fill:#37474F;fill-opacity:1;" d="M 76 72 L 20 72 L 20 40 L 76 40 Z "/>
<path style=" stroke:none;fill-rule:nonzero;fill:#37474F;fill-opacity:1;" d="M 26 23 C 26 24.65625 24.65625 26 23 26 C 21.34375 26 20 24.65625 20 23 C 20 21.34375 21.34375 20 23 20 C 24.65625 20 26 21.34375 26 23 Z "/>
<path style=" stroke:none;fill-rule:nonzero;fill:#37474F;fill-opacity:1;" d="M 34 23 C 34 24.65625 32.65625 26 31 26 C 29.34375 26 28 24.65625 28 23 C 28 21.34375 29.34375 20 31 20 C 32.65625 20 34 21.34375 34 23 Z "/>
<path style=" stroke:none;fill-rule:nonzero;fill:#37474F;fill-opacity:1;" d="M 42 23 C 42 24.65625 40.65625 26 39 26 C 37.34375 26 36 24.65625 36 23 C 36 21.34375 37.34375 20 39 20 C 40.65625 20 42 21.34375 42 23 Z "/>
<path style=" stroke:none;fill-rule:nonzero;fill:#37474F;fill-opacity:1;" d="M 50 23 C 50 24.65625 48.65625 26 47 26 C 45.34375 26 44 24.65625 44 23 C 44 21.34375 45.34375 20 47 20 C 48.65625 20 50 21.34375 50 23 Z "/>
<path style=" stroke:none;fill-rule:nonzero;fill:#37474F;fill-opacity:1;" d="M 44.335938 16 L 44.335938 15.414063 C 44.335938 13.535156 42.800781 12 40.914063 12 L 23.914063 12 C 22.03125 12 20.5 13.535156 20.5 15.414063 L 20.5 16 Z "/>
<path style=" stroke:none;fill-rule:nonzero;fill:#37474F;fill-opacity:1;" d="M 75.5 16 L 75.5 15.414063 C 75.5 13.535156 73.964844 12 72.085938 12 L 59.335938 12 C 57.449219 12 55.914063 13.535156 55.914063 15.414063 L 55.914063 16 Z "/>
</g>
</svg>
