<svg height="512" viewBox="0 0 256 256" width="512" xmlns="http://www.w3.org/2000/svg"><path d="m150.537 84.739h-45.074a2.5 2.5 0 0 1 -2.5-2.5v-45.074a2.5 2.5 0 0 1 2.5-2.5h45.074a2.5 2.5 0 0 1 2.5 2.5v45.074a2.5 2.5 0 0 1 -2.5 2.5zm-42.574-5h40.074v-40.074h-40.074z" fill="#ed9abc"/><g fill="#846f75"><path d="m148.548 202.174h-12.535v-106.057h37.132a8.189 8.189 0 0 0 0-16.378h-90.29a8.189 8.189 0 0 0 0 16.378h37.132v106.057h-12.865a16.681 16.681 0 0 0 -16.662 16.661 2.5 2.5 0 0 0 2.5 2.5h69.75a2.5 2.5 0 0 0 2.5-2.5 16.681 16.681 0 0 0 -16.662-16.661zm-68.881-114.246a3.192 3.192 0 0 1 3.188-3.189h90.29a3.189 3.189 0 0 1 0 6.378h-90.29a3.192 3.192 0 0 1 -3.188-3.189zm16.062 128.407a11.684 11.684 0 0 1 11.393-9.161h15.365a2.5 2.5 0 0 0 2.5-2.5v-108.557h6.026v108.557a2.5 2.5 0 0 0 2.5 2.5h15.035a11.683 11.683 0 0 1 11.392 9.161z"/><path d="m237.324 95.724a7.5 7.5 0 0 0 -13.842.666l-8.717 24.284h-41.474a7.5 7.5 0 0 0 0 15h19.356v68.616h-.57a14.563 14.563 0 0 0 -14.546 14.545 2.5 2.5 0 0 0 2.5 2.5h39.33a2.5 2.5 0 0 0 2.5-2.5 14.563 14.563 0 0 0 -14.546-14.545h-.289v-68.616h13.015a7.518 7.518 0 0 0 7.059-4.966l10.5-29.25a7.45 7.45 0 0 0 -.276-5.734zm-32.8 113.566h2.789a9.564 9.564 0 0 1 9.214 7.045h-33.664a9.564 9.564 0 0 1 9.214-7.045h3.07a2.5 2.5 0 0 0 2.5-2.5v-71.116h4.379v71.116a2.5 2.5 0 0 0 2.5 2.5zm28.37-109.521-10.5 29.25a2.505 2.505 0 0 1 -2.353 1.655h-46.75a2.5 2.5 0 0 1 0-5h43.232a2.5 2.5 0 0 0 2.353-1.655l9.311-25.939a2.5 2.5 0 1 1 4.707 1.689z"/><path d="m82.709 120.674h-41.474l-8.717-24.285a7.5 7.5 0 0 0 -14.118 5.069l10.5 29.25a7.518 7.518 0 0 0 7.059 4.966h13.015v68.616h-.289a14.563 14.563 0 0 0 -14.546 14.545 2.5 2.5 0 0 0 2.5 2.5h39.33a2.5 2.5 0 0 0 2.5-2.5 14.563 14.563 0 0 0 -14.546-14.545h-.57v-68.616h19.356a7.5 7.5 0 0 0 0-15zm-21.856 88.616h3.07a9.564 9.564 0 0 1 9.214 7.045h-33.666a9.564 9.564 0 0 1 9.214-7.045h2.789a2.5 2.5 0 0 0 2.5-2.5v-71.116h4.379v71.116a2.5 2.5 0 0 0 2.5 2.5zm21.856-78.616h-46.75a2.505 2.505 0 0 1 -2.353-1.655l-10.5-29.25a2.5 2.5 0 0 1 4.706-1.69l9.312 25.94a2.5 2.5 0 0 0 2.353 1.655h43.232a2.5 2.5 0 0 1 0 5z"/></g><path d="m124.25 70.7c-.042 0-.083 0-.125 0a2.5 2.5 0 0 1 -1.81-.914l-8.5-10.389a2.5 2.5 0 1 1 3.87-3.167l6.751 8.251 15.046-15.046a2.5 2.5 0 1 1 3.536 3.535l-17 17a2.5 2.5 0 0 1 -1.768.73z" fill="#ed9abc"/></svg>