<?xml version="1.0" encoding="UTF-8"?>
<svg xmlns="http://www.w3.org/2000/svg" xmlns:xlink="http://www.w3.org/1999/xlink" width="96pt" height="96pt" viewBox="0 0 96 96" version="1.1">
<g id="surface1">
<path style=" stroke:none;fill-rule:nonzero;fill:#455A64;fill-opacity:1;" d="M 78 58 C 72.398438 58 68 62.398438 68 68 C 68 73.601563 72.398438 78 78 78 C 83.601563 78 88 73.601563 88 68 C 88 62.398438 83.601563 58 78 58 Z M 78 74 C 74.601563 74 72 71.398438 72 68 C 72 64.601563 74.601563 62 78 62 C 81.398438 62 84 64.601563 84 68 C 84 71.398438 81.398438 74 78 74 Z "/>
<path style=" stroke:none;fill-rule:nonzero;fill:#455A64;fill-opacity:1;" d="M 22 58 C 16.398438 58 12 62.398438 12 68 C 12 73.601563 16.398438 78 22 78 C 27.601563 78 32 73.601563 32 68 C 32 62.398438 27.601563 58 22 58 Z M 22 74 C 18.601563 74 16 71.398438 16 68 C 16 64.601563 18.601563 62 22 62 C 25.398438 62 28 64.601563 28 68 C 28 71.398438 25.398438 74 22 74 Z "/>
<path style=" stroke:none;fill-rule:nonzero;fill:#607D8B;fill-opacity:1;" d="M 78 70 C 77.199219 70 76.601563 69.601563 76.199219 68.800781 L 68.199219 52.800781 C 67.800781 51.800781 68.199219 50.601563 69 50.199219 C 70 49.800781 71.199219 50.199219 71.601563 51 L 79.601563 67 C 80 68 79.601563 69.199219 78.800781 69.601563 C 78.601563 70 78.398438 70 78 70 Z "/>
<path style=" stroke:none;fill-rule:nonzero;fill:#607D8B;fill-opacity:1;" d="M 22 70 C 21.601563 70 21.398438 70 21 69.800781 C 20 69.199219 19.800781 68 20.199219 67 L 28.199219 53 C 28.800781 52 30 51.800781 31 52.199219 C 32 52.800781 32.199219 54 31.800781 55 L 23.800781 69 C 23.398438 69.601563 22.601563 70 22 70 Z "/>
<path style=" stroke:none;fill-rule:nonzero;fill:#00BCD4;fill-opacity:1;" d="M 36 68 L 64 68 C 64 58.199219 71.199219 54.398438 77.398438 53.601563 C 80.199219 53.398438 80 50 80 50 C 78 40 70 32 64 28 L 58 30 L 62 44 C 62 44 64 60 50 60 L 36 60 Z "/>
<path style=" stroke:none;fill-rule:nonzero;fill:#00BCD4;fill-opacity:1;" d="M 22 52 C 34 52 38 62 38 62 L 42 60 C 40 54 36 52 36 52 L 38 42 L 6 42 C 6 42 6.398438 46.199219 10 48 C 14 50 22 52 22 52 Z "/>
<path style=" stroke:none;fill-rule:nonzero;fill:#00BCD4;fill-opacity:1;" d="M 58 30 C 58 30 56 24 56 20 C 56 16 60 16 60 16 L 66 16 L 66 24 L 62 24 C 62 24 72 34 76 40 Z "/>
<path style=" stroke:none;fill-rule:nonzero;fill:#FFC107;fill-opacity:1;" d="M 76 40 L 76 52 L 81.601563 52 C 82 51 82 52.601563 82 52.601563 C 81 47.800781 78.800781 43.601563 76 40 Z "/>
<path style=" stroke:none;fill-rule:nonzero;fill:#FFC107;fill-opacity:1;" d="M 66 16 L 66 24 C 68.199219 24 70 22.199219 70 20 C 70 17.800781 68.199219 16 66 16 Z "/>
<path style=" stroke:none;fill-rule:nonzero;fill:#455A64;fill-opacity:1;" d="M 48 28 C 47.199219 28 46.601563 27.601563 46.199219 26.800781 C 45.800781 25.800781 46.199219 24.601563 47 24.199219 L 59 18.199219 C 60 17.800781 61.199219 18.199219 61.601563 19 C 62 20 61.601563 21.199219 60.800781 21.601563 L 48.800781 27.601563 C 48.601563 28 48.398438 28 48 28 Z "/>
<path style=" stroke:none;fill-rule:nonzero;fill:#0097A7;fill-opacity:1;" d="M 64 68 L 60 68 C 60 63.199219 61.800781 58.601563 65.199219 55.199219 C 72.199219 48.199219 83.601563 48.199219 90.601563 55.199219 L 87.800781 58 C 82.398438 52.601563 73.398438 52.601563 68 58 C 65.398438 60.800781 64 64.199219 64 68 Z "/>
<path style=" stroke:none;fill-rule:nonzero;fill:#0097A7;fill-opacity:1;" d="M 40 68 L 36 68 C 36 64.199219 34.601563 60.800781 32 58.199219 C 26.601563 52.800781 17.601563 52.800781 12.199219 58.199219 L 9.398438 55.398438 C 16.398438 48.398438 27.800781 48.398438 34.800781 55.398438 C 38.199219 58.601563 40 63.199219 40 68 Z "/>
<path style=" stroke:none;fill-rule:nonzero;fill:#37474F;fill-opacity:1;" d="M 40 42.398438 C 40 42.398438 30.601563 44.800781 22.398438 44.800781 C 14.199219 44.800781 4 42 4 42 L 4 41 C 4 38.199219 7.199219 36 10 36 L 34.398438 36 C 37.199219 36 40 38.199219 40 41 Z "/>
</g>
</svg>
