<?xml version="1.0" encoding="UTF-8"?>
<svg xmlns="http://www.w3.org/2000/svg" xmlns:xlink="http://www.w3.org/1999/xlink" width="96pt" height="96pt" viewBox="0 0 96 96" version="1.1">
<g id="surface1">
<path style=" stroke:none;fill-rule:nonzero;fill:#03A9F4;fill-opacity:1;" d="M 38.601563 78 C 40.800781 77.800781 42.398438 75.800781 42 73.601563 L 39.601563 53.800781 L 31.800781 54.800781 L 34.199219 74.601563 C 34.398438 76.601563 36.398438 78.199219 38.601563 78 Z "/>
<path style=" stroke:none;fill-rule:nonzero;fill:#03A9F4;fill-opacity:1;" d="M 57.398438 78 C 59.601563 78.199219 61.601563 76.800781 61.800781 74.601563 L 64.199219 54.800781 L 56.398438 53.800781 L 54 73.601563 C 53.800781 75.800781 55.398438 77.800781 57.398438 78 Z "/>
<path style=" stroke:none;fill-rule:nonzero;fill:#03A9F4;fill-opacity:1;" d="M 74 32 C 77.398438 32 80 34.800781 80 38 L 80 50 C 80 53.199219 77.398438 56 74 56 C 70.601563 56 68 53.199219 68 50 L 68 38 C 68 34.800781 70.601563 32 74 32 Z "/>
<path style=" stroke:none;fill-rule:nonzero;fill:#FFB74D;fill-opacity:1;" d="M 65 44 L 55 44 C 53.398438 44 52 42.601563 52 41 C 52 39.398438 53.398438 38 55 38 L 65 38 C 66.601563 38 68 39.398438 68 41 C 68 42.601563 66.601563 44 65 44 Z "/>
<path style=" stroke:none;fill-rule:nonzero;fill:#FFB74D;fill-opacity:1;" d="M 76 37 C 76 35.398438 74.601563 34 73 34 C 72.601563 34 72 34.199219 71.601563 34.398438 L 64.398438 38 C 63 38.398438 62 39.398438 62 41 C 62 42.601563 63.398438 44 65 44 C 65.601563 44 66.199219 43.800781 66.601563 43.601563 L 74.398438 39.601563 C 75.398438 39 76 38.199219 76 37 Z "/>
<path style=" stroke:none;fill-rule:nonzero;fill:#03A9F4;fill-opacity:1;" d="M 56 58 L 74 58 C 77.398438 58 80 55.398438 80 52 L 80 50 L 60 50 C 57.800781 50 56 51.800781 56 54 Z "/>
<path style=" stroke:none;fill-rule:nonzero;fill:#FFB74D;fill-opacity:1;" d="M 72 18 C 75.398438 18 78 20.601563 78 24 C 78 27.398438 75.398438 30 72 30 C 68.601563 30 66 27.398438 66 24 C 66 20.601563 68.601563 18 72 18 "/>
<path style=" stroke:none;fill-rule:nonzero;fill:#B0BEC5;fill-opacity:1;" d="M 78.601563 62 L 60 62 C 58.800781 62 58 61.199219 58 60 C 58 58.800781 58.800781 58 60 58 L 78.601563 58 C 79.601563 58 80.398438 57.199219 80.601563 56.398438 L 84 35.601563 C 84.199219 34.601563 85.199219 33.800781 86.398438 34 C 87.398438 34.199219 88.199219 35.199219 88 36.398438 L 84.601563 57 C 84 59.800781 81.601563 62 78.601563 62 Z "/>
<path style=" stroke:none;fill-rule:nonzero;fill:#B0BEC5;fill-opacity:1;" d="M 78 78 L 82 78 L 79.800781 58 L 65 58 L 65 62 L 76.199219 62 Z "/>
<path style=" stroke:none;fill-rule:nonzero;fill:#B0BEC5;fill-opacity:1;" d="M 62 60 L 66 60 L 66 78 L 62 78 Z "/>
<path style=" stroke:none;fill-rule:nonzero;fill:#03A9F4;fill-opacity:1;" d="M 22 32 C 18.800781 32 16 34.800781 16 38 L 16 50 C 16 53.199219 18.800781 56 22 56 C 25.199219 56 28 53.199219 28 50 L 28 38 C 28 34.800781 25.199219 32 22 32 Z "/>
<path style=" stroke:none;fill-rule:nonzero;fill:#FFB74D;fill-opacity:1;" d="M 31 44 L 41 44 C 42.601563 44 44 42.601563 44 41 C 44 39.398438 42.601563 38 41 38 L 31 38 C 29.398438 38 28 39.398438 28 41 C 28 42.601563 29.398438 44 31 44 Z "/>
<path style=" stroke:none;fill-rule:nonzero;fill:#FFB74D;fill-opacity:1;" d="M 31.601563 38 L 24.199219 34.199219 C 24 34.199219 23.398438 34 23 34 C 21.398438 34 20 35.398438 20 37 C 20 38.199219 20.601563 39 21.601563 39.601563 L 29.398438 43.601563 C 29.800781 44 30.398438 44 31 44 C 32.601563 44 34 42.601563 34 41 C 34 39.601563 33 38.398438 31.601563 38 Z "/>
<path style=" stroke:none;fill-rule:nonzero;fill:#03A9F4;fill-opacity:1;" d="M 40 58 L 22 58 C 18.601563 58 16 55.398438 16 52 L 16 50 L 36 50 C 38.199219 50 40 51.800781 40 54 Z "/>
<path style=" stroke:none;fill-rule:nonzero;fill:#FFB74D;fill-opacity:1;" d="M 24 18 C 27.398438 18 30 20.601563 30 24 C 30 27.398438 27.398438 30 24 30 C 20.601563 30 18 27.398438 18 24 C 18 20.601563 20.601563 18 24 18 "/>
<path style=" stroke:none;fill-rule:nonzero;fill:#B0BEC5;fill-opacity:1;" d="M 36 62 L 17.398438 62 C 14.398438 62 12 59.800781 11.398438 57 L 8 36.398438 C 7.800781 35.398438 8.601563 34.199219 9.601563 34 C 10.601563 33.800781 11.800781 34.601563 12 35.601563 L 15.398438 56.199219 C 15.601563 57.199219 16.398438 57.800781 17.398438 57.800781 L 36 57.800781 C 37.199219 57.800781 38 58.601563 38 59.800781 C 38 61 37.199219 62 36 62 Z "/>
<path style=" stroke:none;fill-rule:nonzero;fill:#B0BEC5;fill-opacity:1;" d="M 18 78 L 19.800781 62 L 31 62 L 31 58 L 16.199219 58 L 14 78 Z "/>
<path style=" stroke:none;fill-rule:nonzero;fill:#B0BEC5;fill-opacity:1;" d="M 30 60 L 34 60 L 34 78 L 30 78 Z "/>
<path style=" stroke:none;fill-rule:nonzero;fill:#B3E5FC;fill-opacity:1;" d="M 32 44 L 64 44 L 64 62 L 32 62 Z "/>
<path style=" stroke:none;fill-rule:nonzero;fill:#E1F5FE;fill-opacity:1;" d="M 58 62 L 64 68 L 70 62 L 64 44 Z "/>
<path style=" stroke:none;fill-rule:nonzero;fill:#E1F5FE;fill-opacity:1;" d="M 26 62 L 32 68 L 38 62 L 32 44 Z "/>
</g>
</svg>
